<svg xmlns="http://www.w3.org/2000/svg" viewBox="0 0 95.88 46.38">
  <title>esrb_4</title>
  <g id="Layer_2" data-name="Layer 2">
    <g id="Layer_1-2" data-name="Layer 1">
      <rect width="95.88" height="46.38" style="fill: #fff"/>
    </g>
    <g id="Layer_3" data-name="Layer 3">
      <g>
        <path d="M94.88,1V45.38H1V1H94.88" style="fill: #2f2824"/>
        <rect x="2.37" y="2.58" width="26.19" height="7.36" style="fill: #fff"/>
        <rect x="2.36" y="11.54" width="26.21" height="27.05" style="fill: #fff"/>
        <g>
          <polygon points="2.36 43.78 2.36 40.19 7.63 40.19 7.63 41.03 4.48 41.03 4.48 41.54 7.14 41.54 7.14 42.38 4.48 42.38 4.48 42.94 7.75 42.94 7.75 43.78 2.36 43.78" style="fill: #fff"/>
          <path d="M12.22,41.24a.43.43,0,0,0-.31-.25,2.12,2.12,0,0,0-.54-.06c-.47,0-.68.07-.68.21,0,.53,3.71.19,3.71,1.5,0,.83-1.24,1.24-3,1.24s-2.81-.55-2.85-1.2h2a.51.51,0,0,0,.35.28,1.89,1.89,0,0,0,.6.09c.53,0,.88-.09.88-.26,0-.55-3.71-.17-3.71-1.54,0-.77,1.18-1.15,2.8-1.15,1.79,0,2.6.51,2.76,1.14Z" style="fill: #fff"/>
          <path d="M17.57,41.75h.83c.65,0,1-.1,1-.34s-.36-.38-.86-.38h-1Zm0,.78v1.25H15.46V40.19h3c2.15,0,2.86.33,2.86,1,0,.41-.33.76-1.09.88.69.13,1.1.22,1.1.94,0,.47,0,.63.22.63v.11H19.45a1.42,1.42,0,0,1-.11-.63c0-.47-.14-.62-1.13-.62Z" style="fill: #fff"/>
          <path d="M24.77,41v.6h.88c.42,0,.73-.11.73-.31S26,41,25.52,41Zm0,1.25v.66h.92c.53,0,.92-.06.92-.32s-.49-.34-1.17-.34Zm-2.11,1.5V40.19h3.08c1.45,0,2.61.19,2.61.91,0,.37-.43.64-.84.78.69.1,1.07.43,1.07.82,0,.8-1.1,1.08-2.78,1.08Z" style="fill: #fff"/>
        </g>
        <rect x="30.16" y="2.57" width="63.16" height="41.22" style="fill: #fff"/>
        <polygon points="3.31 18.24 11.34 16.07 15.93 26.87 15.96 26.86 14.58 15.21 22.62 13.04 27.63 31.89 22.73 33.2 19.15 19.73 19.11 19.75 20.63 33.77 15.33 35.2 9.68 22.29 9.64 22.3 13.21 35.77 8.32 37.09 3.31 18.24" style="fill: #2f2824"/>
        <g>
          <path d="M3.07,8.34V4.17H4.25L4.8,7h0L5.4,4.17H6.54V8.34H5.83V5.12h0L5.14,8.34h-.7L3.8,5.12h0V8.34Z" style="fill: #2f2824"/>
          <path d="M6.87,8.34l1-4.17h1l.95,4.17H9l-.2-.93h-1l-.2.93ZM8.29,5h0L8,6.77h.7Z" style="fill: #2f2824"/>
          <path d="M11.92,4.17v.69H11.1V8.34h-.74V4.86H9.55V4.17Z" style="fill: #2f2824"/>
          <path d="M14.64,4.17v3a1.47,1.47,0,0,1-.07.46,1.18,1.18,0,0,1-.19.41,1.06,1.06,0,0,1-.37.29,1.2,1.2,0,0,1-.57.12,1.13,1.13,0,0,1-.9-.35,1.36,1.36,0,0,1-.29-.93v-3H13v2.9a1,1,0,0,0,.12.55.41.41,0,0,0,.33.16.39.39,0,0,0,.36-.18,1.1,1.1,0,0,0,.11-.53V4.17Z" style="fill: #2f2824"/>
          <path d="M16,8.34h-.74V4.17h1.36a.72.72,0,0,1,.6.28,1.24,1.24,0,0,1,.22.81,1.42,1.42,0,0,1-.15.68.66.66,0,0,1-.5.34h0l.17,0a.5.5,0,0,1,.21.1.76.76,0,0,1,.18.24,1,1,0,0,1,.08.44v.28c0,.12,0,.24,0,.37s0,.24,0,.35a.88.88,0,0,0,0,.23h-.72a1.35,1.35,0,0,1-.08-.4V7.18a.9.9,0,0,0-.05-.3.4.4,0,0,0-.15-.19.58.58,0,0,0-.32-.08H16ZM16,6h.32a.28.28,0,0,0,.18-.06.53.53,0,0,0,.12-.14.66.66,0,0,0,.06-.2,1.83,1.83,0,0,0,0-.21.78.78,0,0,0-.1-.43.35.35,0,0,0-.28-.12H16Z" style="fill: #2f2824"/>
          <path d="M17.94,8.34V4.17h1.92v.64H18.68v1h1.09v.64H18.68V7.7H19.9v.64Z" style="fill: #2f2824"/>
          <path d="M21.39,4.79a2.93,2.93,0,0,0,.36-.28,1.79,1.79,0,0,0,.3-.36h.65V8.34H22V5.11a1.66,1.66,0,0,1-.27.26l-.3.21Z" style="fill: #2f2824"/>
          <path d="M25.29,5l-.83,3.39H23.7l.93-3.55H23.46V4.15h1.83Z" style="fill: #2f2824"/>
          <path d="M26.43,5H27V6.12h.82v.64H27V7.89h-.54V6.76H25.6V6.12h.83Z" style="fill: #2f2824"/>
        </g>
      </g>
      <g>
        <path d="M34.05,16.56v-5h1.54a1.54,1.54,0,0,1,.74.15,1.08,1.08,0,0,1,.45.45,1.39,1.39,0,0,1,.17.67,1.33,1.33,0,0,1-.15.63,1.18,1.18,0,0,1-.42.44,1.06,1.06,0,0,1,.56.44,1.34,1.34,0,0,1,.21.77,1.72,1.72,0,0,1-.19.8,1.13,1.13,0,0,1-.5.49,1.81,1.81,0,0,1-.85.16Zm.54-2.9h.89a1.55,1.55,0,0,0,.5-.05.52.52,0,0,0,.32-.24.76.76,0,0,0,.12-.46.82.82,0,0,0-.11-.44.54.54,0,0,0-.27-.25,1.83,1.83,0,0,0-.62-.07h-.83Zm0,2.31h1a1.49,1.49,0,0,0,.5-.06.7.7,0,0,0,.36-.29,1,1,0,0,0,.12-.51.9.9,0,0,0-.12-.48.72.72,0,0,0-.31-.29,1.59,1.59,0,0,0-.62-.09h-.95Z"/>
        <path d="M37.8,16.56v-5h.5v5Z"/>
        <path d="M38.9,14.75a2.21,2.21,0,0,1,.39-1.42,1.27,1.27,0,0,1,1-.47,1.24,1.24,0,0,1,1,.47,2.08,2.08,0,0,1,.4,1.38,2.24,2.24,0,0,1-.39,1.45,1.27,1.27,0,0,1-2,0A2.14,2.14,0,0,1,38.9,14.75Zm.51,0a1.73,1.73,0,0,0,.26,1,.77.77,0,0,0,.63.35.75.75,0,0,0,.61-.35,1.75,1.75,0,0,0,.26-1,1.76,1.76,0,0,0-.26-1.05.78.78,0,0,0-.63-.34.73.73,0,0,0-.61.35A1.73,1.73,0,0,0,39.41,14.75Z"/>
        <path d="M42.08,14.75a2.21,2.21,0,0,1,.4-1.42,1.25,1.25,0,0,1,1-.47,1.27,1.27,0,0,1,1,.47,2.14,2.14,0,0,1,.4,1.38,2.24,2.24,0,0,1-.39,1.45,1.28,1.28,0,0,1-2,0A2.19,2.19,0,0,1,42.08,14.75Zm.52,0a1.73,1.73,0,0,0,.25,1,.8.8,0,0,0,.64.35.75.75,0,0,0,.61-.35,1.75,1.75,0,0,0,.25-1,1.77,1.77,0,0,0-.25-1.05.8.8,0,0,0-.64-.34.75.75,0,0,0-.61.35A1.73,1.73,0,0,0,42.6,14.75Z"/>
        <path d="M47.38,16.56V16.1a.92.92,0,0,1-.35.4.78.78,0,0,1-.46.14,1.13,1.13,0,0,1-.91-.49,2.24,2.24,0,0,1-.38-1.4,2.75,2.75,0,0,1,.17-1.05,1.42,1.42,0,0,1,.45-.64,1.1,1.1,0,0,1,.63-.2A.82.82,0,0,1,47,13a1.13,1.13,0,0,1,.36.36V11.56h.5v5Zm-1.59-1.81A1.85,1.85,0,0,0,46,15.8a.74.74,0,0,0,.57.34.68.68,0,0,0,.56-.33,1.69,1.69,0,0,0,.23-1,2,2,0,0,0-.23-1.11.71.71,0,0,0-.59-.35.64.64,0,0,0-.55.34A1.9,1.9,0,0,0,45.79,14.75Z"/>
        <path d="M52.17,16.11a1.86,1.86,0,0,1-.52.4,1.31,1.31,0,0,1-.57.13,1,1,0,0,1-.74-.28,1,1,0,0,1-.28-.75,1.25,1.25,0,0,1,.13-.56,1,1,0,0,1,.36-.38,2.05,2.05,0,0,1,.68-.2,4,4,0,0,0,.9-.21V14.1a.78.78,0,0,0-.13-.52.71.71,0,0,0-.58-.22.79.79,0,0,0-.52.15.94.94,0,0,0-.26.54L50.15,14a1.35,1.35,0,0,1,.43-.85,1.44,1.44,0,0,1,.92-.26,1.36,1.36,0,0,1,.73.17.76.76,0,0,1,.34.44,3.39,3.39,0,0,1,.07.75V15c0,.58,0,.94,0,1.09a1.41,1.41,0,0,0,.13.43h-.53A1.76,1.76,0,0,1,52.17,16.11Zm0-1.37a3.07,3.07,0,0,1-.82.23,1.66,1.66,0,0,0-.45.13.52.52,0,0,0-.19.2.54.54,0,0,0-.07.29.57.57,0,0,0,.16.42.62.62,0,0,0,.44.15.91.91,0,0,0,.49-.14.84.84,0,0,0,.33-.37,1.75,1.75,0,0,0,.11-.68Z"/>
        <path d="M53.42,16.56V12.94h.46v.51a1.1,1.1,0,0,1,.4-.45,1,1,0,0,1,.54-.14,1.08,1.08,0,0,1,.44.09.9.9,0,0,1,.33.25,1,1,0,0,1,.18.39,3.34,3.34,0,0,1,.06.74v2.23h-.5V14.35a1.68,1.68,0,0,0-.07-.58.5.5,0,0,0-.21-.28.58.58,0,0,0-.34-.11.68.68,0,0,0-.57.27,1.48,1.48,0,0,0-.22.93v2Z"/>
        <path d="M58.53,16.56V16.1a1,1,0,0,1-.35.4.78.78,0,0,1-.46.14,1.11,1.11,0,0,1-.91-.49,2.24,2.24,0,0,1-.39-1.4,3,3,0,0,1,.17-1.05,1.51,1.51,0,0,1,.46-.64,1.1,1.1,0,0,1,.63-.2.82.82,0,0,1,.46.13,1.1,1.1,0,0,1,.35.36V11.56H59v5Zm-1.59-1.81a1.85,1.85,0,0,0,.24,1.05.72.72,0,0,0,.57.34.69.69,0,0,0,.56-.33,1.76,1.76,0,0,0,.23-1,2.09,2.09,0,0,0-.23-1.11.72.72,0,0,0-.6-.35.64.64,0,0,0-.54.34A1.82,1.82,0,0,0,56.94,14.75Z"/>
        <path d="M63.39,14.6V14h1.73v1.85a2.92,2.92,0,0,1-.82.59,2.12,2.12,0,0,1-.88.19,1.94,1.94,0,0,1-1.07-.3,2.15,2.15,0,0,1-.75-.87,3.28,3.28,0,0,1-.27-1.39,3.3,3.3,0,0,1,.28-1.42,1.82,1.82,0,0,1,1.78-1.19,1.73,1.73,0,0,1,.78.17,1.5,1.5,0,0,1,.56.47,2.32,2.32,0,0,1,.33.85l-.49.16a1.91,1.91,0,0,0-.25-.63,1,1,0,0,0-.39-.33,1.28,1.28,0,0,0-.56-.12,1.39,1.39,0,0,0-.77.21,1.53,1.53,0,0,0-.51.68,2.65,2.65,0,0,0-.2,1.11,2.32,2.32,0,0,0,.42,1.51,1.36,1.36,0,0,0,1.09.5,1.52,1.52,0,0,0,.66-.16,1.65,1.65,0,0,0,.53-.36V14.6Z"/>
        <path d="M65.65,14.75A2.21,2.21,0,0,1,66,13.33a1.27,1.27,0,0,1,1-.47,1.24,1.24,0,0,1,1,.47,2.08,2.08,0,0,1,.4,1.38A2.24,2.24,0,0,1,68,16.16a1.27,1.27,0,0,1-2,0A2.14,2.14,0,0,1,65.65,14.75Zm.51,0a1.73,1.73,0,0,0,.26,1,.77.77,0,0,0,.64.35.74.74,0,0,0,.6-.35,1.75,1.75,0,0,0,.26-1,1.76,1.76,0,0,0-.26-1.05.78.78,0,0,0-.63-.34.75.75,0,0,0-.61.35A1.73,1.73,0,0,0,66.16,14.75Z"/>
        <path d="M69,16.56V12.94h.45v.55A1.49,1.49,0,0,1,69.8,13a.49.49,0,0,1,.32-.12.88.88,0,0,1,.52.19l-.17.57a.72.72,0,0,0-.37-.13.48.48,0,0,0-.29.11.64.64,0,0,0-.19.32,2.94,2.94,0,0,0-.09.74v1.9Z"/>
        <path d="M73,15.39l.52.08a1.59,1.59,0,0,1-.47.88,1.28,1.28,0,0,1-.84.29,1.25,1.25,0,0,1-1-.48,2.14,2.14,0,0,1-.39-1.38,2.26,2.26,0,0,1,.39-1.43,1.22,1.22,0,0,1,1-.49,1.19,1.19,0,0,1,1,.48,2.18,2.18,0,0,1,.39,1.4v.17H71.28a1.57,1.57,0,0,0,.28.92.78.78,0,0,0,.61.31C72.55,16.14,72.81,15.89,73,15.39Zm-1.65-1H73a1.36,1.36,0,0,0-.2-.7.71.71,0,0,0-.61-.34.75.75,0,0,0-.58.28A1.2,1.2,0,0,0,71.31,14.4Z"/>
        <path d="M34.17,25.56v-5h.55v5Z"/>
        <path d="M35.59,25.56V21.94h.46v.51a1.1,1.1,0,0,1,.4-.45,1,1,0,0,1,.54-.14,1.08,1.08,0,0,1,.44.09.9.9,0,0,1,.33.25,1,1,0,0,1,.18.39,3.34,3.34,0,0,1,.06.74v2.23h-.5V23.35a1.68,1.68,0,0,0-.07-.58.5.5,0,0,0-.21-.28.58.58,0,0,0-.34-.11.68.68,0,0,0-.57.27,1.48,1.48,0,0,0-.22.93v2Z"/>
        <path d="M39.9,25l.06.54a1.35,1.35,0,0,1-.37.06.72.72,0,0,1-.42-.11.51.51,0,0,1-.22-.28,2.75,2.75,0,0,1-.06-.72V22.42h-.37v-.48h.37V21l.5-.37v1.27h.51v.48h-.51v2.11a1,1,0,0,0,0,.38.25.25,0,0,0,.24.12A1.06,1.06,0,0,0,39.9,25Z"/>
        <path d="M42.4,24.39l.52.08a1.65,1.65,0,0,1-.47.88,1.28,1.28,0,0,1-.84.29,1.25,1.25,0,0,1-1-.48,2.14,2.14,0,0,1-.39-1.38,2.26,2.26,0,0,1,.39-1.43,1.21,1.21,0,0,1,1-.49,1.19,1.19,0,0,1,1,.48,2.18,2.18,0,0,1,.38,1.4v.17H40.71a1.57,1.57,0,0,0,.29.92.78.78,0,0,0,.61.31C42,25.14,42.25,24.89,42.4,24.39Zm-1.66-1H42.4a1.36,1.36,0,0,0-.2-.7.73.73,0,0,0-.62-.34.75.75,0,0,0-.57.28A1.26,1.26,0,0,0,40.74,23.4Z"/>
        <path d="M43.55,25.56V21.94H44v.51a1.18,1.18,0,0,1,.4-.45,1.09,1.09,0,0,1,.54-.14,1,1,0,0,1,.44.09.76.76,0,0,1,.33.25,1,1,0,0,1,.18.39,3.22,3.22,0,0,1,.07.74v2.23h-.51V23.35a2,2,0,0,0-.06-.58.57.57,0,0,0-.22-.28.55.55,0,0,0-.33-.11.7.7,0,0,0-.58.27,1.55,1.55,0,0,0-.21.93v2Z"/>
        <path d="M46.54,24.48l.51-.1a.89.89,0,0,0,.24.57.83.83,0,0,0,1,0,.51.51,0,0,0,.18-.41.41.41,0,0,0-.16-.33,1.72,1.72,0,0,0-.51-.2,4.49,4.49,0,0,1-.78-.31.84.84,0,0,1-.31-.34,1.06,1.06,0,0,1-.11-.48,1,1,0,0,1,.3-.75,1.08,1.08,0,0,1,.82-.29,1.34,1.34,0,0,1,.58.12.86.86,0,0,1,.38.32,1.4,1.4,0,0,1,.19.57l-.49.08a.59.59,0,0,0-.65-.59.75.75,0,0,0-.49.13.44.44,0,0,0-.16.34.37.37,0,0,0,.16.31,2.33,2.33,0,0,0,.54.22,3.72,3.72,0,0,1,.81.32.75.75,0,0,1,.29.32,1,1,0,0,1,.1.48,1.11,1.11,0,0,1-.33.84,1.25,1.25,0,0,1-.9.32A1.18,1.18,0,0,1,46.54,24.48Z"/>
        <path d="M51.63,24.39l.52.08a1.59,1.59,0,0,1-.47.88,1.34,1.34,0,0,1-1.86-.19,2.14,2.14,0,0,1-.39-1.38,2.26,2.26,0,0,1,.39-1.43,1.24,1.24,0,0,1,1-.49,1.18,1.18,0,0,1,1,.48,2.18,2.18,0,0,1,.39,1.4v.17H50a1.57,1.57,0,0,0,.28.92.78.78,0,0,0,.61.31C51.22,25.14,51.48,24.89,51.63,24.39ZM50,23.4h1.66a1.35,1.35,0,0,0-.21-.7.71.71,0,0,0-.61-.34.75.75,0,0,0-.58.28A1.2,1.2,0,0,0,50,23.4Z"/>
        <path d="M55.63,25.56l-1.59-5h.58l1.07,3.63c.08.28.16.56.22.82a8.3,8.3,0,0,1,.22-.82l1.1-3.63h.56l-1.6,5Z"/>
        <path d="M58.1,21.27v-.71h.5v.71Zm0,4.29V21.94h.5v3.62Z"/>
        <path d="M59.18,23.75a2.21,2.21,0,0,1,.39-1.42,1.27,1.27,0,0,1,1-.47,1.24,1.24,0,0,1,1,.47,2.08,2.08,0,0,1,.4,1.38,2.24,2.24,0,0,1-.39,1.45,1.27,1.27,0,0,1-2,0A2.14,2.14,0,0,1,59.18,23.75Zm.52,0a1.73,1.73,0,0,0,.25,1,.77.77,0,0,0,.64.35.74.74,0,0,0,.6-.35,2.23,2.23,0,0,0,0-2.09.78.78,0,0,0-.63-.34.75.75,0,0,0-.61.35A1.73,1.73,0,0,0,59.7,23.75Z"/>
        <path d="M62.54,25.56v-5H63v5Z"/>
        <path d="M65.86,24.39l.52.08a1.65,1.65,0,0,1-.47.88,1.28,1.28,0,0,1-.84.29,1.25,1.25,0,0,1-1-.48,2.14,2.14,0,0,1-.39-1.38,2.26,2.26,0,0,1,.39-1.43,1.21,1.21,0,0,1,1-.49,1.19,1.19,0,0,1,1,.48,2.18,2.18,0,0,1,.38,1.4v.17H64.17a1.57,1.57,0,0,0,.29.92.77.77,0,0,0,.61.31C65.45,25.14,65.71,24.89,65.86,24.39Zm-1.66-1h1.66a1.36,1.36,0,0,0-.2-.7.73.73,0,0,0-.62-.34.75.75,0,0,0-.57.28A1.26,1.26,0,0,0,64.2,23.4Z"/>
        <path d="M67,25.56V21.94h.46v.51a1.18,1.18,0,0,1,.4-.45,1.12,1.12,0,0,1,1-.05.76.76,0,0,1,.33.25,1,1,0,0,1,.18.39,3.34,3.34,0,0,1,.06.74v2.23h-.5V23.35a1.68,1.68,0,0,0-.07-.58.5.5,0,0,0-.21-.28.55.55,0,0,0-.33-.11.69.69,0,0,0-.58.27,1.55,1.55,0,0,0-.21.93v2Z"/>
        <path d="M72.14,24.23l.5.08a1.68,1.68,0,0,1-.43,1,1.11,1.11,0,0,1-.82.34,1.17,1.17,0,0,1-1-.48,2.26,2.26,0,0,1-.38-1.41,2.25,2.25,0,0,1,.38-1.42,1.18,1.18,0,0,1,1-.47,1.11,1.11,0,0,1,.77.28,1.42,1.42,0,0,1,.41.86l-.49.09a1.08,1.08,0,0,0-.25-.55.58.58,0,0,0-.43-.18.73.73,0,0,0-.61.33,1.8,1.8,0,0,0-.25,1,1.86,1.86,0,0,0,.24,1.07.69.69,0,0,0,.6.33.68.68,0,0,0,.49-.22A1.22,1.22,0,0,0,72.14,24.23Z"/>
        <path d="M75.09,24.39l.52.08a1.59,1.59,0,0,1-.47.88,1.34,1.34,0,0,1-1.86-.19,2.14,2.14,0,0,1-.39-1.38,2.26,2.26,0,0,1,.39-1.43,1.24,1.24,0,0,1,1-.49,1.17,1.17,0,0,1,1,.48,2.18,2.18,0,0,1,.39,1.4v.17H73.41a1.57,1.57,0,0,0,.28.92.79.79,0,0,0,.62.31Q74.87,25.14,75.09,24.39Zm-1.65-1H75.1a1.46,1.46,0,0,0-.2-.7.74.74,0,0,0-.62-.34.75.75,0,0,0-.58.28A1.2,1.2,0,0,0,73.44,23.4Z"/>
        <path d="M33.89,33l.51-.05a1.68,1.68,0,0,0,.18.64,1.08,1.08,0,0,0,.42.37,1.34,1.34,0,0,0,.61.14,1.09,1.09,0,0,0,.75-.24.77.77,0,0,0,.26-.61.8.8,0,0,0-.09-.39.72.72,0,0,0-.3-.27,5.6,5.6,0,0,0-.84-.3,3.14,3.14,0,0,1-.83-.34,1.33,1.33,0,0,1-.38-.44,1.37,1.37,0,0,1-.14-.61,1.3,1.3,0,0,1,.4-1,1.42,1.42,0,0,1,1.05-.39,1.69,1.69,0,0,1,.8.18,1.27,1.27,0,0,1,.53.52A1.69,1.69,0,0,1,37,31l-.52,0a1.09,1.09,0,0,0-.3-.72,1,1,0,0,0-.7-.24,1,1,0,0,0-.7.21.68.68,0,0,0-.24.53.63.63,0,0,0,.17.48,2.16,2.16,0,0,0,.8.33,6.52,6.52,0,0,1,.85.29,1.42,1.42,0,0,1,.57.51,1.36,1.36,0,0,1,.19.74,1.56,1.56,0,0,1-.2.78,1.36,1.36,0,0,1-.55.54,1.78,1.78,0,0,1-.83.18,1.63,1.63,0,0,1-1.21-.45A1.71,1.71,0,0,1,33.89,33Z"/>
        <path d="M38.94,34l.06.54a1.29,1.29,0,0,1-.37.06.75.75,0,0,1-.42-.11.51.51,0,0,1-.22-.28,2.75,2.75,0,0,1-.06-.72V31.42h-.37v-.48h.37V30l.5-.37v1.27h.51v.48h-.51v2.11a1,1,0,0,0,0,.38.27.27,0,0,0,.25.12A1,1,0,0,0,38.94,34Z"/>
        <path d="M39.41,34.56V30.94h.45v.55a1.66,1.66,0,0,1,.32-.51.52.52,0,0,1,.33-.12.83.83,0,0,1,.51.19l-.17.57a.66.66,0,0,0-.36-.13.44.44,0,0,0-.29.11.58.58,0,0,0-.19.32,2.55,2.55,0,0,0-.1.74v1.9Z"/>
        <path d="M41.13,32.75a2.21,2.21,0,0,1,.39-1.42,1.29,1.29,0,0,1,2,0,2.08,2.08,0,0,1,.4,1.38,2.24,2.24,0,0,1-.39,1.45,1.24,1.24,0,0,1-1,.48,1.25,1.25,0,0,1-1-.48A2.19,2.19,0,0,1,41.13,32.75Zm.51,0a1.73,1.73,0,0,0,.26,1,.77.77,0,0,0,.63.35.75.75,0,0,0,.61-.35,2.31,2.31,0,0,0,0-2.09.78.78,0,0,0-.64-.34.76.76,0,0,0-.61.35A1.81,1.81,0,0,0,41.64,32.75Z"/>
        <path d="M44.5,34.56V30.94H45v.51a1.1,1.1,0,0,1,.4-.45,1,1,0,0,1,.54-.14,1.08,1.08,0,0,1,.44.09.9.9,0,0,1,.33.25,1,1,0,0,1,.18.39,3.34,3.34,0,0,1,.06.74v2.23h-.5V32.35a1.68,1.68,0,0,0-.07-.58.5.5,0,0,0-.21-.28.58.58,0,0,0-.34-.11.68.68,0,0,0-.57.27,1.48,1.48,0,0,0-.22.93v2Z"/>
        <path d="M47.59,34.86l.49.09a.62.62,0,0,0,.2.43.72.72,0,0,0,.48.14.82.82,0,0,0,.52-.15.81.81,0,0,0,.27-.48,4.15,4.15,0,0,0,.05-.8,1.35,1.35,0,0,1-.37.35.9.9,0,0,1-.46.12,1.09,1.09,0,0,1-.88-.45,2.21,2.21,0,0,1-.4-1.39,2.66,2.66,0,0,1,.18-1,1.38,1.38,0,0,1,.46-.64,1.07,1.07,0,0,1,.65-.2.91.91,0,0,1,.48.13,1.15,1.15,0,0,1,.38.38v-.43h.46v3.13A3.73,3.73,0,0,1,50,35.26a1.09,1.09,0,0,1-.45.56,1.3,1.3,0,0,1-.75.21,1.18,1.18,0,0,1-.88-.31A1.11,1.11,0,0,1,47.59,34.86ZM48,32.68a1.81,1.81,0,0,0,.24,1,.69.69,0,0,0,1.16,0,2.25,2.25,0,0,0,0-2,.72.72,0,0,0-.6-.33.68.68,0,0,0-.55.33A1.72,1.72,0,0,0,48,32.68Z"/>
        <path d="M52.5,34.56v-5H53V34h2v.59Z"/>
        <path d="M57.58,34.11a1.86,1.86,0,0,1-.52.4,1.25,1.25,0,0,1-.57.13,1,1,0,0,1-.74-.28,1,1,0,0,1-.27-.75,1.25,1.25,0,0,1,.12-.56,1,1,0,0,1,.36-.38,2.05,2.05,0,0,1,.68-.2,4,4,0,0,0,.9-.21V32.1a.77.77,0,0,0-.14-.52.68.68,0,0,0-.57-.22.8.8,0,0,0-.53.15.88.88,0,0,0-.25.54l-.5-.08a1.35,1.35,0,0,1,.43-.85,1.44,1.44,0,0,1,.92-.26,1.36,1.36,0,0,1,.73.17.76.76,0,0,1,.34.44,2.87,2.87,0,0,1,.07.75V33c0,.58,0,.94,0,1.09a1.76,1.76,0,0,0,.13.43h-.52A1.41,1.41,0,0,1,57.58,34.11Zm0-1.37a3.07,3.07,0,0,1-.82.23,1.46,1.46,0,0,0-.44.13.48.48,0,0,0-.2.2.54.54,0,0,0-.07.29.57.57,0,0,0,.16.42.63.63,0,0,0,.44.15A.91.91,0,0,0,57.1,34a.84.84,0,0,0,.33-.37,1.58,1.58,0,0,0,.11-.68Z"/>
        <path d="M58.83,34.56V30.94h.46v.51a1.18,1.18,0,0,1,.4-.45,1.09,1.09,0,0,1,.54-.14,1,1,0,0,1,.44.09.76.76,0,0,1,.33.25,1,1,0,0,1,.18.39,3.34,3.34,0,0,1,.06.74v2.23h-.5V32.35a2,2,0,0,0-.06-.58.57.57,0,0,0-.22-.28.55.55,0,0,0-.33-.11.7.7,0,0,0-.58.27,1.55,1.55,0,0,0-.21.93v2Z"/>
        <path d="M61.92,34.86l.49.09a.59.59,0,0,0,.21.43.68.68,0,0,0,.47.14.86.86,0,0,0,.53-.15.8.8,0,0,0,.26-.48,4.15,4.15,0,0,0,0-.8,1.22,1.22,0,0,1-.37.35.89.89,0,0,1-.45.12,1.09,1.09,0,0,1-.89-.45,2.21,2.21,0,0,1-.4-1.39,2.66,2.66,0,0,1,.18-1,1.45,1.45,0,0,1,.46-.64,1.09,1.09,0,0,1,.65-.2.91.91,0,0,1,.48.13,1.15,1.15,0,0,1,.38.38v-.43h.47v3.13a3.66,3.66,0,0,1-.14,1.19,1.09,1.09,0,0,1-.45.56,1.27,1.27,0,0,1-.74.21,1.19,1.19,0,0,1-.89-.31A1.11,1.11,0,0,1,61.92,34.86Zm.42-2.18a1.82,1.82,0,0,0,.23,1,.69.69,0,0,0,1.16,0,2.25,2.25,0,0,0,0-2,.71.71,0,0,0-.59-.33.69.69,0,0,0-.56.33A1.73,1.73,0,0,0,62.34,32.68Z"/>
        <path d="M67.15,34.56V34a1.43,1.43,0,0,1-.41.46,1,1,0,0,1-.53.15.92.92,0,0,1-.6-.19.87.87,0,0,1-.34-.48,3.19,3.19,0,0,1-.08-.79V30.94h.5v2a3,3,0,0,0,.06.75A.52.52,0,0,0,66,34a.51.51,0,0,0,.34.11.72.72,0,0,0,.59-.29,1.56,1.56,0,0,0,.2-.94V30.94h.51v3.62Z"/>
        <path d="M70.32,34.11a1.86,1.86,0,0,1-.52.4,1.28,1.28,0,0,1-.57.13,1,1,0,0,1-.74-.28,1,1,0,0,1-.27-.75,1.25,1.25,0,0,1,.12-.56,1,1,0,0,1,.36-.38,2.05,2.05,0,0,1,.68-.2,4,4,0,0,0,.9-.21V32.1a.78.78,0,0,0-.13-.52.7.7,0,0,0-.57-.22.8.8,0,0,0-.53.15.94.94,0,0,0-.26.54L68.3,32a1.35,1.35,0,0,1,.43-.85,1.44,1.44,0,0,1,.92-.26,1.36,1.36,0,0,1,.73.17.76.76,0,0,1,.34.44,2.87,2.87,0,0,1,.07.75V33c0,.58,0,.94,0,1.09a1.76,1.76,0,0,0,.13.43h-.53A1.76,1.76,0,0,1,70.32,34.11Zm0-1.37a3.07,3.07,0,0,1-.82.23,1.46,1.46,0,0,0-.44.13.48.48,0,0,0-.2.2.54.54,0,0,0-.07.29.57.57,0,0,0,.16.42.63.63,0,0,0,.44.15.91.91,0,0,0,.49-.14.84.84,0,0,0,.33-.37,1.75,1.75,0,0,0,.11-.68Z"/>
        <path d="M71.47,34.86,72,35a.62.62,0,0,0,.2.43.68.68,0,0,0,.47.14.86.86,0,0,0,.53-.15.87.87,0,0,0,.27-.48,4.47,4.47,0,0,0,0-.8,1.22,1.22,0,0,1-.37.35.84.84,0,0,1-.45.12,1.07,1.07,0,0,1-.88-.45,2.21,2.21,0,0,1-.4-1.39,2.87,2.87,0,0,1,.17-1,1.47,1.47,0,0,1,.47-.64,1.06,1.06,0,0,1,.64-.2.86.86,0,0,1,.48.13,1.08,1.08,0,0,1,.39.38v-.43H74v3.13a3.4,3.4,0,0,1-.14,1.19,1.12,1.12,0,0,1-.44.56,1.32,1.32,0,0,1-.75.21,1.21,1.21,0,0,1-.89-.31A1.18,1.18,0,0,1,71.47,34.86Zm.42-2.18a1.81,1.81,0,0,0,.24,1,.68.68,0,0,0,1.15,0,1.7,1.7,0,0,0,.24-1,1.79,1.79,0,0,0-.24-1,.74.74,0,0,0-.6-.33.68.68,0,0,0-.55.33A1.72,1.72,0,0,0,71.89,32.68Z"/>
        <path d="M76.79,33.39l.52.08a1.65,1.65,0,0,1-.47.88,1.28,1.28,0,0,1-.84.29,1.26,1.26,0,0,1-1-.48,2.14,2.14,0,0,1-.39-1.38,2.26,2.26,0,0,1,.4-1.43,1.21,1.21,0,0,1,1-.49,1.19,1.19,0,0,1,1,.48,2.24,2.24,0,0,1,.38,1.4v.17H75.1a1.57,1.57,0,0,0,.29.92.77.77,0,0,0,.61.31C76.38,34.14,76.64,33.89,76.79,33.39Zm-1.66-1h1.66a1.36,1.36,0,0,0-.2-.7.73.73,0,0,0-.62-.34.73.73,0,0,0-.57.28A1.26,1.26,0,0,0,75.13,32.4Z"/>
      </g>
    </g>
  </g>
</svg>
