<svg xmlns="http://www.w3.org/2000/svg" width="485" height="12" viewBox="0 0 484.66 11.97">
  <title>title-horiz-rule</title>
  <g id="Layer_2" data-name="Layer 2">
    <g id="logo">
      <path d="M16.32,6.66H219.47c11.33.18,18.77,2.4,22.44,5.31C245.58,9,253,6.82,264.34,6.66H468.46c4,.09,5.21,2,6.59,3.36,1.3-2.89,8.21-3.31,9.41-3.36h.2V5.27s-8.19-.21-9.61-3.34c-1.41,1.46-2.63,3.37-6.87,3.37H263.32C252.58,5,245.46,2.83,241.91,0c-3.57,2.83-10.69,5-21.41,5.3h-204C12.23,5.3,11,3.39,9.6,1.93,8.18,5.09,0,5.3,0,5.3V6.66H.12c1,0,8.16.42,9.48,3.36C11,8.58,12.2,6.71,16.32,6.66ZM232.4,6c3.75,0,8.28-1.31,9.87-3,1.58,1.66,3.72,3,9.92,3-6.2,0-8.34,1.3-9.92,3C240.68,7.29,236.15,6,232.4,6Z" style="fill: #ffffff"/>
    </g>
  </g>
</svg>
