<svg xmlns="http://www.w3.org/2000/svg" viewBox="0 0 610 6.01" width="610" height="6">
  <g id="Layer_2" data-name="Layer 2">
    <g id="logo">
      <path d="M0,6H609.74V5.22H0ZM601.18,3.28A8.93,8.93,0,0,1,595,5.21h15S602.47,5,601.18,3.28ZM9,3.28C7.73,5,.21,5.21.21,5.21H15.26A8.93,8.93,0,0,1,9,3.28Z" style="fill: #f8a912;fill-rule: evenodd"/>
      <path d="M305,0c-5.94,3.37-18.25,5.94-37,5.94,16.16.16,37,0,37,0s20.84.16,37,0C323.25,5.94,310.94,3.37,305,0Z" style="fill: #f8a912;fill-rule: evenodd"/>
    </g>
  </g>
</svg>
